<svg id="Layer_1" data-name="Layer 1" xmlns="http://www.w3.org/2000/svg" viewBox="0 0 1800 103.87">
  <defs>
    <style>
      .cls-1 {
        fill: #2592f2;
      }

      .cls-2 {
        fill: #64b2f6;
        stroke: #64b2f6;
        stroke-miterlimit: 10;
      }
    </style>
  </defs>
  <title>blog-flair</title>
  <path class="cls-1"
    d="M346.5,81.5c154.38-22.62,221.24-50.44,380-53,201.83-3.26,206.88,39.88,405,45,279.84,7.23,317.62-77.59,556-45,43.4,5.93,129.4,20.68,232,61.45V-.5H-.5V103C142,105.61,258.58,94.38,346.5,81.5Z"
    transform="translate(0.5 0.5)" />
  <path class="cls-2"
    d="M926.5,24.5C904.86,28,883,31.45,861,35.18,947.18,46.9,990.32,69.85,1131.5,73.5c146.46,3.79,226.61-17.64,303.92-34.26-105.07-21.93-180-27-211.92-28.74C1073.35,2.38,960.25,19.11,926.5,24.5Z"
    transform="translate(0.5 0.5)" />
</svg>