<svg id="Layer_1" data-name="Layer 1" xmlns="http://www.w3.org/2000/svg" viewBox="0 0 768.27 86.76">
  <defs>
    <style>
      .cls-1 {
        fill: #2592f2;
      }

      .cls-2 {
        fill: #64b2f6;
      }
    </style>
  </defs>
  <title>tablet-hero-flair</title>
  <path class="cls-1"
    d="M172.13,72.94c99.6-14.55,136.1-58.07,276.1-67.55,83.34-5.67,137.06,5.27,182.06,23.33,44.07,17.71,48.32,29.63,88,44.22a332.74,332.74,0,0,0,50,13.82V0H.06V68.43C55.05,78.74,118,80.85,172.13,72.94Z"
    transform="translate(0 0)" />
  <path class="cls-2"
    d="M718.27,72.94a333,333,0,0,0,50,13.82V29.29c-33.89,8.23-66.47,14.74-97,19.88C684.68,57.26,695.79,64.67,718.27,72.94Z"
    transform="translate(0 0)" />
  <path class="cls-2"
    d="M0,68.43c55,10.31,117.89,12.42,172.07,4.51,32.74-4.79,58.66-12.7,83.69-21.5C185.19,39.91,115.54,26.39,0,24Z"
    transform="translate(0 0)" />
</svg>